<svg width="148" height="41" viewBox="0 0 148 41" fill="none" xmlns="http://www.w3.org/2000/svg">
<rect x="15.681" y="38.6558" width="20.7254" height="8.29016" rx="2.07254" transform="rotate(-135 15.681 38.6558)" fill="white"/>
<g filter="url(#filter0_d_21_493)">
<path d="M2.39953 25.3857C1.59015 24.5763 1.59015 23.264 2.39953 22.4547L14.1236 10.7306C14.933 9.92123 16.2452 9.92123 17.0546 10.7306L19.9856 13.6616C20.795 14.471 20.795 15.7833 19.9856 16.5926L12.6843 23.8939C12.6668 23.9114 12.6496 23.928 12.6317 23.945C12.3907 24.1743 10.5625 25.95 9.9105 27.6638C9.27022 29.3469 9.18511 32.1713 9.18511 32.1713L2.39953 25.3857Z" fill="white"/>
</g>
<path d="M23.5689 28.6842C24.3783 29.4935 25.6905 29.4935 26.4999 28.6842L38.224 16.9601C39.0333 16.1507 39.0333 14.8385 38.224 14.0291L35.2929 11.0981C34.4836 10.2887 33.1713 10.2887 32.3619 11.0981L20.6379 22.8221C19.8285 23.6315 19.8285 24.9438 20.6379 25.7531L23.5689 28.6842Z" fill="white"/>
<g filter="url(#filter1_d_21_493)">
<path d="M37.763 13.5704L26.4664 2.19625C25.6579 1.38214 24.3418 1.37989 23.5304 2.19122L20.6173 5.10439C19.8029 5.91876 19.8086 7.24087 20.6301 8.04811L28.0843 15.3735C28.0843 15.3735 31.0565 13.5849 33.2656 13.4668C35.8665 13.3277 37.763 13.5704 37.763 13.5704Z" fill="white"/>
</g>
<path d="M49.8045 33.0005V10.391H51.869V31.1458H62.6438V33.0005H49.8045ZM71.6192 33.3869C70.5962 33.3869 69.6615 33.1882 68.8151 32.7907C67.9687 32.3859 67.2953 31.8045 66.7948 31.0464C66.2943 30.281 66.0441 29.3537 66.0441 28.2644C66.0441 27.4254 66.2023 26.7188 66.5188 26.1448C66.8353 25.5707 67.2842 25.0997 67.8656 24.7317C68.4471 24.3637 69.1352 24.073 69.9301 23.8595C70.725 23.6461 71.6008 23.4805 72.5576 23.3627C73.507 23.245 74.3092 23.1419 74.9642 23.0536C75.6266 22.9653 76.1308 22.8255 76.4767 22.6341C76.8226 22.4428 76.9956 22.1336 76.9956 21.7068V21.3093C76.9956 20.1538 76.6497 19.2449 75.9578 18.5825C75.2734 17.9128 74.2871 17.5779 72.9992 17.5779C71.7774 17.5779 70.7802 17.8465 70.0074 18.3838C69.2419 18.9211 68.7047 19.554 68.3956 20.2826L66.5298 19.6092C66.9125 18.6819 67.4425 17.9422 68.1196 17.3902C68.7967 16.8309 69.5547 16.4297 70.3938 16.1869C71.2328 15.9366 72.0829 15.8115 72.944 15.8115C73.5916 15.8115 74.2651 15.8962 74.9642 16.0654C75.6708 16.2347 76.3258 16.5291 76.9293 16.9486C77.5328 17.3608 78.0223 17.9385 78.3976 18.6819C78.773 19.4179 78.9606 20.3526 78.9606 21.486V33.0005H76.9956V30.3178H76.8741C76.6386 30.8183 76.289 31.304 75.8253 31.7751C75.3617 32.2461 74.7802 32.6325 74.0811 32.9342C73.3819 33.236 72.5612 33.3869 71.6192 33.3869ZM71.8841 31.5874C72.9292 31.5874 73.8345 31.3556 74.5999 30.8919C75.3654 30.4282 75.9541 29.8137 76.3663 29.0482C76.7858 28.2755 76.9956 27.4254 76.9956 26.498V24.0472C76.8484 24.187 76.6018 24.3122 76.2559 24.4226C75.9173 24.533 75.5236 24.6323 75.0746 24.7206C74.633 24.8016 74.1915 24.8715 73.7499 24.9304C73.3083 24.9893 72.9108 25.0408 72.5576 25.0849C71.6008 25.2027 70.7838 25.3867 70.1067 25.6369C69.4296 25.8872 68.9107 26.2331 68.5501 26.6747C68.1895 27.1089 68.0092 27.6683 68.0092 28.3527C68.0092 29.3831 68.3772 30.1817 69.1131 30.7484C69.8491 31.3077 70.7728 31.5874 71.8841 31.5874ZM84.5965 33.0005V10.391H86.5726V19.278H86.7492C86.97 18.7702 87.2865 18.2476 87.6987 17.7104C88.1182 17.1731 88.6665 16.7241 89.3436 16.3635C90.0281 15.9955 90.8892 15.8115 91.9269 15.8115C93.3179 15.8115 94.5397 16.1795 95.5921 16.9155C96.6446 17.6441 97.4652 18.6671 98.054 19.9846C98.6428 21.2946 98.9372 22.8218 98.9372 24.5661C98.9372 26.3177 98.6428 27.8523 98.054 29.1697C97.4726 30.4871 96.6556 31.5138 95.6032 32.2498C94.5581 32.9858 93.3437 33.3538 91.96 33.3538C90.9296 33.3538 90.0685 33.1698 89.3767 32.8018C88.6922 32.4338 88.1402 31.9811 87.7207 31.4439C87.3012 30.8992 86.9774 30.3693 86.7492 29.8541H86.5064V33.0005H84.5965ZM86.5395 24.533C86.5395 25.9019 86.7419 27.1163 87.1467 28.1761C87.5588 29.2286 88.1476 30.0565 88.913 30.6601C89.6858 31.2562 90.6205 31.5543 91.7171 31.5543C92.8432 31.5543 93.7963 31.2452 94.5765 30.6269C95.3566 30.0013 95.9491 29.1586 96.3539 28.0988C96.7587 27.039 96.961 25.8504 96.961 24.533C96.961 23.2303 96.7587 22.0564 96.3539 21.0113C95.9564 19.9662 95.3676 19.1382 94.5875 18.5273C93.8073 17.9091 92.8506 17.6 91.7171 17.6C90.6132 17.6 89.6748 17.898 88.902 18.4942C88.1366 19.083 87.5515 19.8999 87.1467 20.945C86.7419 21.9828 86.5395 23.1787 86.5395 24.533ZM109.933 16.0434V17.7545H101.841V16.0434H109.933ZM104.369 11.9807H106.345V28.5735C106.345 29.2801 106.466 29.8357 106.709 30.2405C106.952 30.638 107.269 30.9213 107.659 31.0906C108.049 31.2525 108.465 31.3335 108.906 31.3335C109.164 31.3335 109.385 31.3188 109.568 31.2893C109.752 31.2525 109.914 31.2157 110.054 31.1789L110.474 32.9563C110.282 33.0299 110.047 33.0962 109.767 33.155C109.488 33.2213 109.142 33.2544 108.729 33.2544C108.008 33.2544 107.313 33.0962 106.643 32.7797C105.981 32.4632 105.436 31.9922 105.009 31.3666C104.582 30.741 104.369 29.9645 104.369 29.0372V11.9807ZM121.069 33.3538C119.487 33.3538 118.118 32.9858 116.962 32.2498C115.807 31.5064 114.913 30.4797 114.28 29.1697C113.654 27.8523 113.341 26.3361 113.341 24.6213C113.341 22.9138 113.654 21.3977 114.28 20.0729C114.913 18.7407 115.785 17.6993 116.896 16.9486C118.015 16.1905 119.307 15.8115 120.771 15.8115C121.691 15.8115 122.578 15.9808 123.432 16.3193C124.285 16.6505 125.051 17.1621 125.728 17.8539C126.412 18.5383 126.953 19.4031 127.351 20.4482C127.748 21.486 127.947 22.7151 127.947 24.1355V25.107H114.699V23.3738H125.938C125.938 22.2845 125.717 21.3057 125.275 20.4372C124.841 19.5614 124.234 18.8695 123.454 18.3617C122.681 17.8539 121.787 17.6 120.771 17.6C119.697 17.6 118.751 17.887 117.934 18.4611C117.117 19.0351 116.477 19.7932 116.013 20.7353C115.557 21.6773 115.325 22.7077 115.317 23.8264V24.8642C115.317 26.211 115.549 27.3886 116.013 28.3969C116.484 29.3978 117.15 30.1743 118.011 30.7263C118.872 31.2783 119.892 31.5543 121.069 31.5543C121.871 31.5543 122.574 31.4292 123.178 31.1789C123.789 30.9287 124.3 30.5938 124.712 30.1743C125.132 29.7474 125.448 29.2801 125.662 28.7722L127.527 29.3794C127.27 30.0933 126.847 30.752 126.258 31.3556C125.676 31.9591 124.948 32.4448 124.072 32.8128C123.204 33.1734 122.203 33.3538 121.069 33.3538ZM138.901 33.3538C137.385 33.3538 136.064 32.9747 134.938 32.2167C133.819 31.4586 132.951 30.4209 132.333 29.1034C131.714 27.786 131.405 26.2846 131.405 24.5992C131.405 22.8991 131.718 21.3866 132.344 20.0618C132.977 18.7371 133.852 17.6993 134.971 16.9486C136.09 16.1905 137.389 15.8115 138.868 15.8115C140.002 15.8115 141.028 16.0323 141.948 16.4739C142.868 16.9081 143.626 17.5227 144.222 18.3176C144.826 19.1051 145.205 20.025 145.36 21.0775H143.372C143.166 20.1207 142.67 19.3038 141.882 18.6267C141.102 17.9422 140.108 17.6 138.901 17.6C137.819 17.6 136.863 17.8944 136.031 18.4831C135.199 19.0646 134.548 19.8778 134.077 20.9229C133.613 21.9607 133.381 23.164 133.381 24.533C133.381 25.9093 133.61 27.1273 134.066 28.1871C134.522 29.2396 135.162 30.0639 135.987 30.6601C136.818 31.2562 137.79 31.5543 138.901 31.5543C139.652 31.5543 140.336 31.4144 140.955 31.1348C141.58 30.8477 142.103 30.4429 142.522 29.9204C142.949 29.3978 143.236 28.7759 143.383 28.0547H145.371C145.223 29.0777 144.859 29.9903 144.278 30.7925C143.704 31.5874 142.957 32.213 142.037 32.6693C141.124 33.1256 140.079 33.3538 138.901 33.3538Z" fill="white"/>
<defs>
<filter id="filter0_d_21_493" x="1.7925" y="9.29452" width="20.4582" height="23.7056" filterUnits="userSpaceOnUse" color-interpolation-filters="sRGB">
<feFlood flood-opacity="0" result="BackgroundImageFix"/>
<feColorMatrix in="SourceAlpha" type="matrix" values="0 0 0 0 0 0 0 0 0 0 0 0 0 0 0 0 0 0 127 0" result="hardAlpha"/>
<feOffset dx="0.829016"/>
<feGaussianBlur stdDeviation="0.414508"/>
<feComposite in2="hardAlpha" operator="out"/>
<feColorMatrix type="matrix" values="0 0 0 0 0 0 0 0 0 0 0 0 0 0 0 0 0 0 0.1 0"/>
<feBlend mode="normal" in2="BackgroundImageFix" result="effect1_dropShadow_21_493"/>
<feBlend mode="normal" in="SourceGraphic" in2="effect1_dropShadow_21_493" result="shape"/>
</filter>
<filter id="filter1_d_21_493" x="20.0102" y="0.755213" width="19.4109" height="15.4473" filterUnits="userSpaceOnUse" color-interpolation-filters="sRGB">
<feFlood flood-opacity="0" result="BackgroundImageFix"/>
<feColorMatrix in="SourceAlpha" type="matrix" values="0 0 0 0 0 0 0 0 0 0 0 0 0 0 0 0 0 0 127 0" result="hardAlpha"/>
<feOffset dx="0.829016"/>
<feGaussianBlur stdDeviation="0.414508"/>
<feComposite in2="hardAlpha" operator="out"/>
<feColorMatrix type="matrix" values="0 0 0 0 0 0 0 0 0 0 0 0 0 0 0 0 0 0 0.1 0"/>
<feBlend mode="normal" in2="BackgroundImageFix" result="effect1_dropShadow_21_493"/>
<feBlend mode="normal" in="SourceGraphic" in2="effect1_dropShadow_21_493" result="shape"/>
</filter>
</defs>
</svg>
